<?xml version="1.0" standalone="no"?>
<!DOCTYPE svg PUBLIC "-//W3C//DTD SVG 20010904//EN"
 "http://www.w3.org/TR/2001/REC-SVG-20010904/DTD/svg10.dtd">
<svg version="1.0" xmlns="http://www.w3.org/2000/svg"
 width="512.000000pt" height="512.000000pt" viewBox="0 0 512.000000 512.000000"
 preserveAspectRatio="xMidYMid meet">
<metadata>
Created by potrace 1.14, written by Peter Selinger 2001-2017
</metadata>
<g transform="translate(0.000000,512.000000) scale(0.100000,-0.100000)"
fill="#000000" stroke="none">
<path d="M2991 4404 c-139 -29 -270 -113 -347 -222 -23 -33 -70 -134 -79 -167
-19 -79 -24 -171 -12 -239 18 -98 98 -203 192 -251 68 -34 120 -40 338 -40 98
0 170 -3 160 -6 -10 -4 -43 -15 -73 -24 -87 -27 -173 -71 -247 -128 -37 -29
-102 -75 -143 -103 -41 -27 -77 -51 -80 -54 -3 -3 -32 -26 -66 -52 l-61 -47
-17 82 c-43 200 -155 491 -266 688 -111 197 -304 455 -363 486 -42 21 -109 20
-149 -4 -108 -63 -393 -507 -497 -774 -18 -46 -37 -93 -41 -104 -23 -54 -83
-269 -96 -340 -3 -16 -6 -31 -8 -32 -1 -1 -24 16 -52 39 -122 101 -327 222
-479 282 -56 23 -80 27 -119 22 -50 -5 -94 -36 -118 -80 -22 -41 -37 -212 -33
-391 4 -190 6 -210 34 -343 l18 -83 -22 5 c-12 3 -40 8 -61 11 -21 4 -50 8
-64 11 -14 2 -74 6 -133 9 l-109 6 7 -103 c13 -228 61 -432 148 -633 39 -91
103 -212 123 -236 8 -8 14 -19 14 -23 0 -5 38 -58 84 -120 352 -468 893 -740
1466 -738 195 1 253 7 418 43 l93 21 52 -21 c119 -46 89 -45 1152 -46 816 -2
1023 1 1080 12 210 41 390 202 461 413 26 75 26 313 1 414 -52 210 -170 391
-340 525 -47 37 -196 113 -262 135 -27 9 -79 22 -115 30 -65 14 -65 14 125 16
219 2 230 3 309 35 115 47 200 125 258 236 72 143 60 387 -29 564 -87 171
-240 304 -421 365 -88 29 -104 31 -317 35 -104 2 -192 5 -195 5 -3 1 16 8 41
16 162 49 260 210 245 400 -18 243 -178 428 -426 495 -62 17 -900 19 -979 3z"/>
</g>
</svg>
